<?xml version="1.0" encoding="utf-8"?>
<!-- Generator: Adobe Illustrator 14.0.0, SVG Export Plug-In . SVG Version: 6.00 Build 43363)  -->
<!DOCTYPE svg PUBLIC "-//W3C//DTD SVG 1.1//EN" "http://www.w3.org/Graphics/SVG/1.1/DTD/svg11.dtd">
<svg version="1.1" xmlns="http://www.w3.org/2000/svg" xmlns:xlink="http://www.w3.org/1999/xlink" x="0px" y="0px" width="1920px"
	 height="1080px" viewBox="0 0 1920 1080" enable-background="new 0 0 1920 1080" xml:space="preserve">
<g id="svg8" inkscape:export-xdpi="96" inkscape:version="0.92.4 (5da689c313, 2019-01-14)" inkscape:export-ydpi="96" sodipodi:docname="background.svg" xmlns:dc="http://purl.org/dc/elements/1.1/" xmlns:cc="http://creativecommons.org/ns#" xmlns:rdf="http://www.w3.org/1999/02/22-rdf-syntax-ns#" xmlns:svg="http://www.w3.org/2000/svg" xmlns:sodipodi="http://sodipodi.sourceforge.net/DTD/sodipodi-0.dtd" xmlns:inkscape="http://www.inkscape.org/namespaces/inkscape" xmlns:ns2="http://ns.adobe.com/AdobeIllustrator/10.0/" inkscape:export-filename="C:\Users\xine\Documents\2018-debian-buster\futurePrototype-source\login-screen\png\login-1920x1080.png">
	
		<sodipodi:namedview  units="px" id="base" inkscape:window-height="1008" inkscape:window-width="1920" inkscape:bbox-paths="true" inkscape:snap-nodes="true" inkscape:snap-page="true" inkscape:window-y="36" inkscape:window-x="0" inkscape:snap-global="true" inkscape:bbox-nodes="true" inkscape:snap-others="true" inkscape:snap-bbox="true" inkscape:showpageshadow="false" inkscape:current-layer="layer3" inkscape:object-paths="true" inkscape:snap-bbox-midpoints="true" inkscape:snap-intersection-paths="true" inkscape:window-maximized="1" inkscape:snap-bbox-edge-midpoints="true" inkscape:snap-smooth-nodes="true" inkscape:document-units="px" inkscape:pageshadow="2" inkscape:pageopacity="0.0" inkscape:zoom="0.48007684" showborder="true" borderlayer="true" borderopacity="1" bordercolor="#b20eb2" showgrid="false" pagecolor="#ffffff" inkscape:cy="298.53934" inkscape:cx="967.73163">
		</sodipodi:namedview>
	
		<linearGradient id="rect1009-2_1_" gradientUnits="userSpaceOnUse" x1="1115.751" y1="903.6729" x2="1115.751" y2="341.1331" gradientTransform="matrix(1.8898 0 0 -1.8898 -1148.5479 1724.9984)">
		<stop  offset="0" style="stop-color:#0C1866"/>
		<stop  offset="1" style="stop-color:#5F77FF"/>
	</linearGradient>
	
		<rect id="rect1009-2" x="-64" inkscape:export-xdpi="96" inkscape:export-ydpi="96" inkscape:export-filename="C:\Users\xine\Documents\2018-debian-buster\futurePrototype\wallpapers\png\4096x2160\futurePrototype-wallpaper-06-4096x2160.png" fill="url(#rect1009-2_1_)" width="2048" height="1080">
	</rect>
	<g id="g865" transform="matrix(0.5,0,0,0.5,-16.933319,285.75)" opacity="0.1">
		<path id="rect839" inkscape:connector-curvature="0" fill="#00A359" d="M-94.133-571.5v2160h1969.657
			c71.313-111.332,107.647-242.016,81.647-375.947c-25.591-168.115-176.229-285.535-335.946-317.248
			c-208.691-37.352-432.721-11.018-627.943-109.58C654.641,630.27,466.094,219.234,563.287-139.242
			C605.108-312.526,710.942-463.887,850.608-571.5H-94.133z"/>
		<path id="rect841" inkscape:connector-curvature="0" fill="#E2001A" d="M3106.781,860.396
			c-805.383-1.443-1279.948,366.225-1768.913,332.104c-760.757-53.088-938.829,164.271-1432.001,295.297V1588.5h4096V942.363
			c-259.621,4.49-557.211-78.99-876-81.863C3119.484,860.443,3113.121,860.408,3106.781,860.396z"/>
		<path id="rect843" inkscape:connector-curvature="0" fill="#00A359" d="M-94.133,795.602V1588.5h4096v-316.494
			c-262.477-104.371-654.344-194.092-952-159.506c-442.453,51.41-1383.683,449.637-2083.999,244
			C480.759,1214.057,275.549,893.467-94.133,795.602z"/>
		<path id="rect845" inkscape:connector-curvature="0" fill="#E2001A" d="M-94.133-571.5V673.775
			c236.854-9.373,518.599-61.322,646.037-121.25c194.993-91.693,351.981-261.279,428.349-462.711
			c65.904-173.84,71.883-369.753,16.701-547.285c-12.145-39.07-27.238-77.196-45.018-114.029H-94.133z"/>
		<path id="rect847" inkscape:connector-curvature="0" fill="#00A359" d="M-94.133-571.5v890.066
			c148.479,31.133,300.363,45.965,452.063,43.537c371.618-5.945,741.042-115.395,1055.927-312.836
			c131.35-82.36,254.252-180.116,396.139-242.602c141.572-62.348,299.146-87.285,453.255-73.824
			c154.105,13.461,304.488,65.093,435.516,147.328c262.051,164.47,439.637,451.467,485.688,757.41
			c14.566,96.787,17.113,196.643,50.91,288.5c40.684,110.58,124.773,201.648,223.344,266.199s211.305,104.457,325.332,134.16
			c71.66,18.668,144.871,33.768,217.828,49.49V-571.5H-94.133z"/>
		<path id="rect849" inkscape:connector-curvature="0" fill="#E2001A" d="M2692.21-571.5
			c-344.617,121.868-647.902,393.91-785.907,757.439c-251.148,661.555,1110.052,943.967,791.446,171.617
			c-272.156-659.738,697.613-249.664,1304.117,692.539V-306.918c-92.207-45.051-229.625-120.894-447.039-229.145
			c-26.242-13.065-52.867-24.864-79.813-35.438H2692.21z"/>
	</g>
</g>
<g id="Livello_2">
	<polygon fill="#E2001A" points="907.329,808.465 926.834,808.465 926.834,799.461 896.381,799.461 907.329,808.465 	"/>
	<polygon fill="#00512C" points="895.833,850.691 906.913,850.691 906.913,830.459 895.833,830.459 895.833,850.691 	"/>
	<polygon fill="#005FA1" points="896.387,829.847 925.527,829.847 925.527,820.921 907.328,820.921 896.387,829.847 	"/>
	<polygon fill="#00A359" points="895.833,799.803 895.833,829.509 906.913,820.471 906.913,808.915 895.833,799.803 	"/>
	<g>
		<path fill="#FFFFFF" d="M951.066,851.736h-7.113v-2.846l-4.684,3.481l-1.39,0.03c-2.417,0.061-4.421-0.465-6.012-1.574
			c-1.792-1.251-2.688-3.058-2.688-5.419c0-2.119,0.916-3.985,2.749-5.601c1.37-1.19,3.384-2.331,6.042-3.421
			c1.994-0.757,3.988-1.503,5.982-2.24v-1.623c0-4.267-1.842-6.399-5.524-6.399c-1.649,0-3.805,0.797-6.464,2.392l1.665-5.667
			c2.542-0.944,4.743-1.417,6.599-1.417c3.996,0,6.752,1.372,8.266,4.117c1.129,2.038,1.695,5.258,1.695,9.657
			c0,0.908-0.031,2.285-0.092,4.133c-0.061,1.846-0.09,3.214-0.09,4.102C950.008,847.034,950.36,849.799,951.066,851.736z
			 M943.953,847.347v-8.234h-7.781c-0.625,1.897-0.938,3.421-0.938,4.571c0,2.664,1.746,3.996,5.237,3.996
			C941.439,847.68,942.6,847.569,943.953,847.347z"/>
		<path fill="#FFFFFF" d="M980.932,833.905c0,6.862-2.16,11.696-6.479,14.501c-3.432,2.221-8.658,3.33-15.682,3.33h-3.814
			c0.787-2.522,1.18-6.104,1.18-10.747v-18.527c0-5.268-0.393-9.082-1.18-11.443l8.295-1.695c-0.787,3.552-1.182,6.075-1.182,7.568
			v10.202l4.662-5.207c1.45-0.303,2.688-0.454,3.717-0.454c3.543,0,6.232,1.231,8.065,3.693
			C980.125,827.306,980.932,830.232,980.932,833.905z M974.816,836.357c0-6.236-2.361-9.354-7.081-9.354
			c-1.667,0-3.556,0.524-5.665,1.574v18.588c1.486,0.242,2.924,0.363,4.309,0.363C972.004,847.528,974.816,843.805,974.816,836.357z
			"/>
		<path fill="#FFFFFF" d="M992.902,851.736h-8.295c0.787-2.422,1.182-5.368,1.182-8.84v-11.11c0-2.624-0.041-4.288-0.121-4.995
			c-0.121-1.352-0.475-2.926-1.061-4.723h8.295c-0.586,2.261-0.938,3.824-1.059,4.692c-0.082,0.767-0.121,2.352-0.121,4.753v11.383
			C991.723,846.408,992.115,849.355,992.902,851.736z M992.6,814.409c0,1.15-0.332,2.19-0.994,3.118
			c-0.744,0.989-1.68,1.483-2.805,1.483c-1.207,0-2.191-0.474-2.955-1.423c-0.684-0.867-1.025-1.928-1.025-3.179
			c0-1.211,0.342-2.261,1.025-3.148c0.744-0.989,1.709-1.483,2.895-1.483c1.105,0,2.041,0.505,2.805,1.514
			C992.248,812.22,992.6,813.259,992.6,814.409z"/>
		<path fill="#FFFFFF" d="M1018.256,851.736h-7.113v-2.846l-4.684,3.481l-1.389,0.03c-2.418,0.061-4.422-0.465-6.014-1.574
			c-1.793-1.251-2.688-3.058-2.688-5.419c0-2.119,0.916-3.985,2.748-5.601c1.369-1.19,3.385-2.331,6.043-3.421
			c1.994-0.757,3.988-1.503,5.982-2.24v-1.623c0-4.267-1.842-6.399-5.525-6.399c-1.648,0-3.805,0.797-6.463,2.392l1.664-5.667
			c2.543-0.944,4.742-1.417,6.6-1.417c3.996,0,6.752,1.372,8.266,4.117c1.129,2.038,1.695,5.258,1.695,9.657
			c0,0.908-0.031,2.285-0.092,4.133c-0.061,1.846-0.09,3.214-0.09,4.102C1017.197,847.034,1017.549,849.799,1018.256,851.736z
			 M1011.143,847.347v-8.234h-7.781c-0.625,1.897-0.938,3.421-0.938,4.571c0,2.664,1.744,3.996,5.236,3.996
			C1008.629,847.68,1009.789,847.569,1011.143,847.347z"/>
		<path fill="#FFFFFF" d="M1047.393,851.736h-8.295c0.787-1.879,1.182-4.617,1.182-8.214v-10.185c0-2.082-0.252-3.566-0.754-4.455
			c-0.682-1.253-1.996-1.88-3.943-1.88c-1.465,0-3.451,0.657-5.959,1.97v13.579c0,3.598,0.393,6.658,1.18,9.185h-8.295
			c0.564-1.836,0.908-3.229,1.029-4.178c0.102-0.727,0.152-2.189,0.152-4.39v-11.171c0-3.612-0.395-6.922-1.182-9.93h7.115v5.358
			l4.57-5.237c1.43-0.504,2.748-0.757,3.957-0.757c3.16,0,5.395,1.251,6.703,3.754c1.027,1.998,1.541,4.976,1.541,8.931v9.536
			C1046.395,847.104,1046.727,849.799,1047.393,851.736z"/>
	</g>
</g>
</svg>
