<?xml version="1.0" encoding="utf-8"?>
<!-- Generator: Adobe Illustrator 14.0.0, SVG Export Plug-In . SVG Version: 6.00 Build 43363)  -->
<!DOCTYPE svg PUBLIC "-//W3C//DTD SVG 1.1//EN" "http://www.w3.org/Graphics/SVG/1.1/DTD/svg11.dtd">
<svg version="1.1" id="Livello_1" xmlns="http://www.w3.org/2000/svg" xmlns:xlink="http://www.w3.org/1999/xlink" x="0px" y="0px"
	 width="1920px" height="1080px" viewBox="0 0 1920 1080" enable-background="new 0 0 1920 1080" xml:space="preserve">
<g id="svg8" inkscape:export-xdpi="96" inkscape:version="0.92.4 (5da689c313, 2019-01-14)" inkscape:export-ydpi="96" sodipodi:docname="background.svg" xmlns:dc="http://purl.org/dc/elements/1.1/" xmlns:cc="http://creativecommons.org/ns#" xmlns:rdf="http://www.w3.org/1999/02/22-rdf-syntax-ns#" xmlns:svg="http://www.w3.org/2000/svg" xmlns:sodipodi="http://sodipodi.sourceforge.net/DTD/sodipodi-0.dtd" xmlns:inkscape="http://www.inkscape.org/namespaces/inkscape" xmlns:ns2="http://ns.adobe.com/AdobeIllustrator/10.0/" inkscape:export-filename="C:\Users\xine\Documents\2018-debian-buster\futurePrototype-source\login-screen\png\login-1920x1080.png">
	
		<sodipodi:namedview  units="px" id="base" inkscape:window-height="1008" inkscape:window-width="1920" inkscape:bbox-paths="true" inkscape:snap-nodes="true" inkscape:snap-page="true" inkscape:window-y="36" inkscape:window-x="0" inkscape:snap-global="true" inkscape:bbox-nodes="true" inkscape:snap-others="true" inkscape:snap-bbox="true" inkscape:showpageshadow="false" inkscape:current-layer="layer3" inkscape:object-paths="true" inkscape:snap-bbox-midpoints="true" inkscape:snap-intersection-paths="true" inkscape:window-maximized="1" inkscape:snap-bbox-edge-midpoints="true" inkscape:snap-smooth-nodes="true" inkscape:document-units="px" inkscape:pageshadow="2" inkscape:pageopacity="0.0" inkscape:zoom="0.48007684" showborder="true" borderlayer="true" borderopacity="1" bordercolor="#b20eb2" showgrid="false" pagecolor="#ffffff" inkscape:cy="298.53934" inkscape:cx="967.73163">
		</sodipodi:namedview>
	
		<linearGradient id="rect1009-2_1_" gradientUnits="userSpaceOnUse" x1="1689.8037" y1="-391.2607" x2="1689.8037" y2="171.2791" gradientTransform="matrix(1.8898 0 0 1.8898 -2233.3916 756.6413)">
		<stop  offset="0" style="stop-color:#0C1866"/>
		<stop  offset="1" style="stop-color:#5F77FF"/>
	</linearGradient>
	
		<rect id="rect1009-2" x="-64" inkscape:export-xdpi="96" inkscape:export-ydpi="96" inkscape:export-filename="C:\Users\xine\Documents\2018-debian-buster\futurePrototype\wallpapers\png\4096x2160\futurePrototype-wallpaper-06-4096x2160.png" fill="url(#rect1009-2_1_)" width="2048" height="1080">
	</rect>
	<g id="g865" transform="matrix(0.5,0,0,0.5,-16.933319,285.75)" opacity="0.1">
		<path id="rect839" inkscape:connector-curvature="0" fill="#00A359" d="M-94.133-571.5v2160h1969.657
			c71.313-111.332,107.647-242.016,81.647-375.947c-25.591-168.115-176.229-285.535-335.946-317.248
			c-208.691-37.352-432.721-11.018-627.943-109.58C654.641,630.27,466.094,219.234,563.287-139.242
			C605.108-312.526,710.942-463.887,850.608-571.5H-94.133z"/>
		<path id="rect841" inkscape:connector-curvature="0" fill="#E2001A" d="M3106.781,860.396
			c-805.383-1.443-1279.948,366.225-1768.913,332.104c-760.757-53.088-938.828,164.271-1432.001,295.297V1588.5h4096V942.363
			c-259.621,4.49-557.211-78.99-876-81.863C3119.484,860.443,3113.121,860.408,3106.781,860.396z"/>
		<path id="rect843" inkscape:connector-curvature="0" fill="#00A359" d="M-94.133,795.602V1588.5h4096v-316.494
			c-262.477-104.371-654.344-194.092-952-159.506c-442.453,51.41-1383.683,449.637-2083.999,244
			C480.759,1214.057,275.549,893.467-94.133,795.602z"/>
		<path id="rect845" inkscape:connector-curvature="0" fill="#E2001A" d="M-94.133-571.5V673.775
			c236.854-9.373,518.6-61.322,646.037-121.25c194.993-91.693,351.981-261.279,428.349-462.711
			c65.904-173.841,71.883-369.754,16.701-547.285c-12.145-39.07-27.238-77.196-45.018-114.029H-94.133L-94.133-571.5z"/>
		<path id="rect847" inkscape:connector-curvature="0" fill="#00A359" d="M-94.133-571.5v890.066
			c148.479,31.133,300.363,45.965,452.063,43.537c371.617-5.945,741.041-115.396,1055.928-312.837
			c131.35-82.359,254.252-180.115,396.139-242.602c141.572-62.348,299.144-87.285,453.253-73.824
			c154.105,13.461,304.488,65.093,435.516,147.328c262.055,164.47,439.641,451.468,485.691,757.409
			c14.563,96.787,17.113,196.645,50.91,288.5c40.684,110.58,124.77,201.648,223.344,266.199
			c98.57,64.551,211.305,104.457,325.332,134.16c71.66,18.668,144.871,33.768,217.828,49.49V-571.5H-94.133z"/>
		<path id="rect849" inkscape:connector-curvature="0" fill="#E2001A" d="M2692.21-571.5
			c-344.617,121.868-647.902,393.91-785.907,757.439c-251.148,661.555,1110.052,943.967,791.446,171.617
			c-272.156-659.738,697.613-249.665,1304.117,692.539V-306.918c-92.207-45.051-229.625-120.895-447.039-229.145
			c-26.242-13.065-52.867-24.864-79.813-35.438L2692.21-571.5L2692.21-571.5z"/>
	</g>
</g>
</svg>
